Coordinates
version=1
nRows=26
nColumns=24
inDegrees=yes

Units are S.I. units (second, meters, Newtons, ...)
Angles are in degrees.

endheader
time	pelvis_tilt	pelvis_list	pelvis_rotation	pelvis_tx	pelvis_ty	pelvis_tz	hip_flexion_r	hip_adduction_r	hip_rotation_r	knee_angle_r	ankle_angle_r	subtalar_angle_r	mtp_angle_r	hip_flexion_l	hip_adduction_l	hip_rotation_l	knee_angle_l	ankle_angle_l	subtalar_angle_l	mtp_angle_l	lumbar_extension	lumbar_bending	lumbar_rotation
      1.17000000	     24.03109618	     -3.72905473	      1.70381763	     -0.15325513	      1.03386233	      0.13748270	    -31.68301611	      9.19692194	     -4.73145723	     -4.50432106	     13.16398242	     -6.57609940	      4.89510178	      0.76562662	     -4.56315863	     -2.67941310	    -29.31192138	      5.16921771	     -5.87178830	     30.65926147	    -44.15053604	      3.65801473	      0.05471188
      1.17500000	     24.04782212	     -3.70869388	      1.62810696	     -0.14743783	      1.03340323	      0.13728886	    -32.22817733	      9.11965383	     -4.67829576	     -4.22944994	     13.26104841	     -6.41300256	      4.91945188	      0.58556150	     -4.42185936	     -2.77300561	    -27.34110870	      5.00804803	     -5.24675016	     30.63059518	    -44.19614020	      3.61041015	      0.06365684
      1.18000000	     24.05758565	     -3.69737598	      1.55321221	     -0.14160776	      1.03290004	      0.13708300	    -32.75780437	      9.04830733	     -4.63656860	     -3.97067817	     13.35660693	     -6.23004750	      4.95049054	      0.38764027	     -4.29059274	     -2.87267008	    -25.35051689	      4.80932708	     -4.62914260	     30.60267546	    -44.23612324	      3.57168091	      0.07874117
      1.18500000	     24.08406956	     -3.69081013	      1.48916790	     -0.13574572	      1.03235805	      0.13688715	    -33.30464474	      8.98761111	     -4.61418619	     -3.71580854	     13.45333719	     -6.03699969	      4.98876170	      0.14892953	     -4.16912827	     -2.97614386	    -23.35129270	      4.60084382	     -4.01695551	     30.57791591	    -44.29067137	      3.53767898	      0.09486066
      1.19000000	     24.09416585	     -3.70536828	      1.42571818	     -0.12986362	      1.03177685	      0.13666038	    -33.81916761	      8.94207129	     -4.59717903	     -3.49047242	     13.54910732	     -5.82986106	      5.03580613	     -0.09187990	     -4.06836899	     -3.09026347	    -21.35311475	      4.36635921	     -3.43112515	     30.54693839	    -44.32714542	      3.52565689	      0.12220460
      1.19500000	     24.09409725	     -3.72511920	      1.37181894	     -0.12395531	      1.03112699	      0.13640908	    -34.31153750	      8.90483551	     -4.60531182	     -3.28677937	     13.64398811	     -5.63881602	      5.08704917	     -0.33328398	     -3.97458955	     -3.22061457	    -19.37557051	      4.12013812	     -2.84781013	     30.51517259	    -44.35115480	      3.52561415	      0.12459936
      1.20000000	     24.10994316	     -3.76233960	      1.31479458	     -0.11801166	      1.03045734	      0.13617259	    -34.82202528	      8.88046017	     -4.60210836	     -3.08498085	     13.74651268	     -5.41339693	      5.15258457	     -0.61012951	     -3.90068871	     -3.36844449	    -17.42130826	      3.87950622	     -2.29938646	     30.47455495	    -44.38946572	      3.53340947	      0.18029881
      1.20500000	     24.11157717	     -3.81244458	      1.26182858	     -0.11204328	      1.02973383	      0.13591444	    -35.29954449	      8.86723154	     -4.61223133	     -2.91814159	     13.84631583	     -5.20230181	      5.22577962	     -0.87938082	     -3.84011549	     -3.54218564	    -15.50964789	      3.62746856	     -1.76412298	     30.42394412	    -44.41062634	      3.55569138	      0.22542327
      1.21000000	     24.11830133	     -3.88012621	      1.20763356	     -0.10606329	      1.02897907	      0.13565314	    -35.76742863	      8.86638259	     -4.62313524	     -2.78070198	     13.94773543	     -4.98114017	      5.31154837	     -1.15941295	     -3.79802201	     -3.74569252	    -13.65637790	      3.38041633	     -1.24932408	     30.36124187	    -44.43801495	      3.58979257	      0.28465647
      1.21500000	     24.12304682	     -3.95247335	      1.14686495	     -0.10004101	      1.02818935	      0.13538782	    -36.22151757	      8.86324524	     -4.63789637	     -2.66964860	     14.05504289	     -4.76143906	      5.41089662	     -1.44320711	     -3.75853528	     -3.98871625	    -11.87278268	      3.14394651	     -0.75252365	     30.28330822	    -44.45997805	      3.62305668	      0.35072255
      1.22000000	     24.11916955	     -4.04075909	      1.07586025	     -0.09399045	      1.02737296	      0.13512034	    -36.64940287	      8.86503054	     -4.64882238	     -2.59252550	     14.15795241	     -4.54441112	      5.51673891	     -1.71630796	     -3.73302284	     -4.27788936	    -10.18019790	      2.92036835	     -0.27251885	     30.19449714	    -44.47110695	      3.66382691	      0.43678160
      1.22500000	     24.13007372	     -4.13074719	      0.99390320	     -0.08791850	      1.02655312	      0.13485208	    -37.07743084	      8.85743324	     -4.65977670	     -2.54789666	     14.26782646	     -4.32272081	      5.63842036	     -2.00208781	     -3.70555780	     -4.61748851	     -8.58944943	      2.71842611	      0.19887392	     30.08938889	    -44.49737625	      3.69729770	      0.52655318
      1.23000000	     24.13402706	     -4.23051289	      0.90514911	     -0.08181755	      1.02570663	      0.13459123	    -37.48192341	      8.85161303	     -4.66562268	     -2.53572831	     14.38263825	     -4.09707854	      5.78136153	     -2.26771489	     -3.68583422	     -4.99209418	     -7.12260708	      2.55381438	      0.66596292	     29.96313375	    -44.51421177	      3.73131825	      0.63445552
      1.23500000	     24.13279662	     -4.33722496	      0.79354890	     -0.07570802	      1.02486918	      0.13433550	    -37.85293538	      8.83291123	     -4.66653336	     -2.57652751	     14.49373760	     -3.87564060	      5.92985040	     -2.51369377	     -3.66739528	     -5.43169933	     -5.78897127	      2.39249251	      1.09761216	     29.82617168	    -44.52772174	      3.75701616	      0.74715673
      1.24000000	     24.14578071	     -4.44179306	      0.67534726	     -0.06958599	      1.02402982	      0.13407683	    -38.22178311	      8.80339136	     -4.66574611	     -2.65100567	     14.61190408	     -3.65103471	      6.09842520	     -2.75420363	     -3.64354649	     -5.89560995	     -4.60370495	      2.28452733	      1.52561633	     29.67038477	    -44.55659415	      3.77387356	      0.86488630
      1.24500000	     24.15951492	     -4.52838022	      0.53360453	     -0.06339643	      1.02320993	      0.13383113	    -38.58790248	      8.73951553	     -4.65698720	     -2.73559279	     14.73844884	     -3.42239767	      6.31416528	     -2.98198479	     -3.59611402	     -6.39765201	     -3.56786573	      2.23429586	      1.95864067	     29.46747470	    -44.57938144	      3.76034502	      1.01548687
      1.25000000	     24.16867135	     -4.62854820	      0.37246284	     -0.05725030	      1.02240654	      0.13361335	    -38.90129897	      8.67081560	     -4.63577570	     -2.90718243	     14.85600261	     -3.20353385	      6.51487671	     -3.17309722	     -3.56062804	     -6.93384613	     -2.70023813	      2.17371588	      2.28103207	     29.27631594	    -44.60530134	      3.74006322	      1.14388972
      1.25500000	     24.23726047	     -4.68317785	      0.20893101	     -0.05100510	      1.02167265	      0.13339699	    -39.29258336	      8.55571408	     -4.65833692	     -3.05576496	     14.96089917	     -2.97994661	      6.87109581	     -3.41628895	     -3.48003832	     -7.50252095	     -1.98452298	      2.20904838	      2.73670051	     28.93034252	    -44.68188605	      3.67491191	      1.29179339
      1.26000000	     24.21709566	     -4.77369369	      0.00232707	     -0.04482066	      1.02090136	      0.13324257	    -39.53170606	      8.44367153	     -4.58083799	     -3.29574412	     14.89010991	     -2.90775303	      9.00348444	     -3.51293882	     -3.44053171	     -8.10070958	     -1.49410667	      2.44409719	      3.19091717	     26.55075551	    -44.67749270	      3.61236530	      1.43645885
      1.26500000	     24.29101328	     -4.81873021	     -0.22665605	     -0.03856295	      1.02025664	      0.13308359	    -39.86904137	      8.26592706	     -4.55468303	     -3.55669033	     15.00653992	     -2.66142697	      9.08251297	     -3.71980288	     -3.34339983	     -8.67904872	     -1.09323582	      2.42489025	      3.29228849	     26.47885082	    -44.76259834	      3.49102431	      1.58922983
      1.27000000	     24.33520021	     -4.87054851	     -0.47846943	     -0.03229178	      1.01961942	      0.13298657	    -40.14199083	      8.07728148	     -4.49009577	     -3.87902338	     15.13917255	     -2.41252967	      9.21647866	     -3.86469617	     -3.26490681	     -9.26321174	     -0.86188494	      2.41924609	      3.39877298	     26.37790631	    -44.81755885	      3.35476994	      1.75028870
      1.27500000	     24.40262893	     -4.89312707	     -0.74295046	     -0.02593424	      1.01903371	      0.13291611	    -40.43208730	      7.85117777	     -4.45703006	     -4.21754255	     15.25067883	     -2.17429204	      9.43053151	     -4.01532566	     -3.16026842	     -9.86646612	     -0.78404900	      2.43572420	      3.45067306	     26.21851840	    -44.88690695	      3.17934447	      1.91776715
      1.28000000	     24.40128477	     -4.89633826	     -1.02464853	     -0.01956630	      1.01839949	      0.13288562	    -40.61519413	      7.59932695	     -4.35811452	     -4.61457655	     15.38021610	     -2.00677784	      9.56934780	     -4.05664961	     -3.04638049	    -10.34562233	     -0.87179957	      2.43429227	      3.27240872	     26.11961169	    -44.88329074	      2.97566736	      2.05949862
      1.28500000	     24.50742125	     -4.89860603	     -1.31664939	     -0.01310325	      1.01793697	      0.13290711	    -40.90995934	      7.32674834	     -4.33259301	     -5.01285084	     15.23970823	     -1.81463136	     11.85996123	     -4.20918142	     -2.94420186	    -10.97591714	     -1.08747021	      2.58437125	      3.39752179	     24.44829480	    -44.98088644	      2.74931890	      2.20285968
      1.29000000	     24.57783481	     -4.89787817	     -1.60669935	     -0.00665922	      1.01745202	      0.13294263	    -41.13443735	      7.05616541	     -4.21315407	     -5.47525649	     15.33778709	     -1.67950068	     11.93873320	     -4.30841723	     -2.84505011	    -11.40596183	     -1.38804983	      2.45254610	      3.01703441	     24.36461611	    -45.04348161	      2.51869009	      2.34324957
      1.29500000	     24.62507164	     -4.85984217	     -1.90651199	     -0.00009217	      1.01696765	      0.13301736	    -41.32059238	      6.74629870	     -4.13453598	     -5.96660148	     15.39019107	     -1.51752377	     12.03896039	     -4.36332546	     -2.71985890	    -11.82534154	     -1.81085118	      2.33698571	      2.62439209	     24.28339698	    -45.06698759	      2.24458796	      2.46999086
